<mxfile host="app.diagrams.net" modified="2023-05-26T18:17:32.982Z" agent="Mozilla/5.0 (Windows NT 10.0; Win64; x64) AppleWebKit/537.36 (KHTML, like Gecko) Chrome/113.0.0.0 Safari/537.36" version="21.1.5" etag="_iyfcRX2nREG00IskfJ9" type="github">
  <diagram name="Page-1" id="PnGsgR3uqbwt5PGazdcQ">
    <mxGraphModel>
      <root>
        <mxCell id="0" />
        <mxCell id="1" parent="0" />
      </root>
    </mxGraphModel>
  </diagram>
</mxfile>
